<svg width="50" height="50" viewBox="0 0 50 50" fill="none" xmlns="http://www.w3.org/2000/svg">
<path d="M25 45.8333C23.8542 45.8333 22.8733 45.4253 22.0573 44.6093C21.2413 43.7934 20.8333 42.8125 20.8333 41.6666H29.1667C29.1667 42.8125 28.7587 43.7934 27.9427 44.6093C27.1267 45.4253 26.1458 45.8333 25 45.8333ZM16.6667 39.5833V35.4166H33.3333V39.5833H16.6667ZM17.1875 33.3333C14.7917 31.9097 12.8906 30 11.4844 27.6041C10.0781 25.2083 9.375 22.6041 9.375 19.7916C9.375 15.4513 10.8941 11.7621 13.9323 8.72392C16.9705 5.68572 20.6597 4.16663 25 4.16663C29.3403 4.16663 33.0295 5.68572 36.0677 8.72392C39.1059 11.7621 40.625 15.4513 40.625 19.7916C40.625 22.6041 39.9219 25.2083 38.5156 27.6041C37.1094 30 35.2083 31.9097 32.8125 33.3333H17.1875ZM18.4375 29.1666H31.5625C33.125 28.0555 34.3316 26.684 35.1823 25.052C36.033 23.4201 36.4583 21.6666 36.4583 19.7916C36.4583 16.5972 35.3472 13.8888 33.125 11.6666C30.9028 9.4444 28.1944 8.33329 25 8.33329C21.8056 8.33329 19.0972 9.4444 16.875 11.6666C14.6528 13.8888 13.5417 16.5972 13.5417 19.7916C13.5417 21.6666 13.967 23.4201 14.8177 25.052C15.6684 26.684 16.875 28.0555 18.4375 29.1666Z" fill="#41FFFF"/>
</svg>
