<svg width="50" height="50" viewBox="0 0 50 50" fill="none" xmlns="http://www.w3.org/2000/svg">
<path d="M22.9166 43.75V39.5833H39.5833V24.7917C39.5833 20.7292 38.1684 17.283 35.3385 14.4531C32.5086 11.6233 29.0625 10.2083 25 10.2083C20.9375 10.2083 17.4913 11.6233 14.6614 14.4531C11.8316 17.283 10.4166 20.7292 10.4166 24.7917V37.5H8.33329C7.18746 37.5 6.20656 37.092 5.39058 36.276C4.57461 35.4601 4.16663 34.4792 4.16663 33.3333V29.1667C4.16663 28.4375 4.34892 27.7517 4.7135 27.1094C5.07808 26.467 5.59024 25.9549 6.24996 25.5729L6.40621 22.8125C6.68399 20.4514 7.36975 18.2639 8.4635 16.25C9.55725 14.2361 10.9288 12.4826 12.5781 10.9896C14.2274 9.49653 16.1198 8.33333 18.2552 7.5C20.3906 6.66667 22.6388 6.25 25 6.25C27.3611 6.25 29.6007 6.66667 31.7187 7.5C33.8368 8.33333 35.7291 9.48785 37.3958 10.9635C39.0625 12.4392 40.434 14.184 41.5104 16.1979C42.5868 18.2118 43.2812 20.3993 43.5937 22.7604L43.75 25.4688C44.4097 25.7812 44.9218 26.25 45.2864 26.875C45.651 27.5 45.8333 28.1597 45.8333 28.8542V33.6458C45.8333 34.3403 45.651 35 45.2864 35.625C44.9218 36.25 44.4097 36.7188 43.75 37.0312V39.5833C43.75 40.7292 43.342 41.7101 42.526 42.526C41.71 43.342 40.7291 43.75 39.5833 43.75H22.9166ZM18.75 29.1667C18.1597 29.1667 17.6649 28.967 17.2656 28.5677C16.8663 28.1684 16.6666 27.6736 16.6666 27.0833C16.6666 26.4931 16.8663 25.9983 17.2656 25.599C17.6649 25.1997 18.1597 25 18.75 25C19.3402 25 19.835 25.1997 20.2343 25.599C20.6336 25.9983 20.8333 26.4931 20.8333 27.0833C20.8333 27.6736 20.6336 28.1684 20.2343 28.5677C19.835 28.967 19.3402 29.1667 18.75 29.1667ZM31.25 29.1667C30.6597 29.1667 30.1649 28.967 29.7656 28.5677C29.3663 28.1684 29.1666 27.6736 29.1666 27.0833C29.1666 26.4931 29.3663 25.9983 29.7656 25.599C30.1649 25.1997 30.6597 25 31.25 25C31.8402 25 32.335 25.1997 32.7343 25.599C33.1336 25.9983 33.3333 26.4931 33.3333 27.0833C33.3333 27.6736 33.1336 28.1684 32.7343 28.5677C32.335 28.967 31.8402 29.1667 31.25 29.1667ZM12.552 25.9375C12.309 22.2569 13.4201 19.0972 15.8854 16.4583C18.3507 13.8194 21.4236 12.5 25.1041 12.5C28.1944 12.5 30.9114 13.4809 33.2552 15.4427C35.5989 17.4045 37.0138 19.9132 37.5 22.9688C34.3402 22.934 31.4322 22.0833 28.776 20.4167C26.1197 18.75 24.0798 16.4931 22.6562 13.6458C22.1007 16.4236 20.9288 18.8976 19.1406 21.0677C17.3524 23.2378 15.1562 24.8611 12.552 25.9375Z" fill="#41FFFF"/>
</svg>
