<svg width="50" height="50" viewBox="0 0 50 50" fill="none" xmlns="http://www.w3.org/2000/svg">
<path d="M17.9166 46.875L13.9583 40.2083L6.45825 38.5417L7.18742 30.8333L2.08325 25L7.18742 19.1667L6.45825 11.4583L13.9583 9.79167L17.9166 3.125L24.9999 6.14583L32.0833 3.125L36.0416 9.79167L43.5416 11.4583L42.8124 19.1667L47.9166 25L42.8124 30.8333L43.5416 38.5417L36.0416 40.2083L32.0833 46.875L24.9999 43.8542L17.9166 46.875ZM19.6874 41.5625L24.9999 39.2708L30.4166 41.5625L33.3333 36.5625L39.0624 35.2083L38.5416 29.375L42.3958 25L38.5416 20.5208L39.0624 14.6875L33.3333 13.4375L30.3124 8.4375L24.9999 10.7292L19.5833 8.4375L16.6666 13.4375L10.9374 14.6875L11.4583 20.5208L7.60408 25L11.4583 29.375L10.9374 35.3125L16.6666 36.5625L19.6874 41.5625ZM22.8124 32.3958L34.5833 20.625L31.6666 17.6042L22.8124 26.4583L18.3333 22.0833L15.4166 25L22.8124 32.3958Z" fill="#41FFFF"/>
</svg>
